<svg xmlns="http://www.w3.org/2000/svg" fill="none" viewBox="0 0 18 18">
  <path fill="currentColor" fill-rule="evenodd" d="M4.13 1.23 2.943 0 0 3.042l1.189 1.23L4.13 1.229Zm9.74 0L15.057 0 18 3.042l-1.189 1.23-2.942-3.043ZM9 18C4.358 18 .594 14.108.594 9.307.594 4.507 4.358.615 9 .615c4.642 0 8.405 3.891 8.405 8.692S13.642 18 9 18Zm0-1.738c3.714 0 6.724-3.114 6.724-6.955 0-3.84-3.01-6.954-6.724-6.954-3.714 0-6.725 3.114-6.725 6.954 0 3.841 3.011 6.955 6.725 6.955Zm4.203-7.824H9.84V4.092H8.159v6.085h5.044V8.438Z" clip-rule="evenodd"/>
</svg>
