<svg xmlns="http://www.w3.org/2000/svg" fill="none" viewBox="0 0 18 18">
  <path fill="currentColor" fill-rule="evenodd" d="M9 0a9 9 0 1 1 0 18A9 9 0 0 1 9 0ZM1.69 8.106c.239.305.902.696 1.917 1.015.4.125.837.236 1.307.33-.003-.15-.005-.3-.005-.451 0-2.723.496-5.181 1.354-6.838A7.371 7.371 0 0 0 1.69 8.106Zm3.325 3.03c-1.314-.228-2.44-.574-3.294-1.018a7.373 7.373 0 0 0 4.542 5.72c-.627-1.21-1.06-2.847-1.248-4.702Zm1.677.218c.734.066 1.507.1 2.308.1.788 0 1.565-.044 2.312-.127-.37 2.944-1.39 5.037-2.312 5.037-.92 0-1.936-2.08-2.308-5.01Zm4.751-1.696c-.777.1-1.602.16-2.443.16-.854 0-1.675-.042-2.442-.122-.008-.23-.013-.461-.013-.696C6.545 4.896 7.85 1.636 9 1.636c1.15 0 2.454 3.26 2.454 7.364 0 .222-.003.442-.01.658Zm1.55 1.41c-.185 1.883-.622 3.546-1.256 4.77a7.372 7.372 0 0 0 4.562-5.86c-.867.452-2.01.83-3.307 1.09Zm3.312-3c-.385.431-1.6.945-3.217 1.304L13.09 9c0-2.723-.496-5.181-1.354-6.838a7.371 7.371 0 0 1 4.568 5.905Z" clip-rule="evenodd"/>
</svg>
