<svg xmlns="http://www.w3.org/2000/svg" fill="none" viewBox="0 0 18 18">
  <path fill="currentColor" fill-rule="evenodd" d="M12.105.07a1.796 1.796 0 0 1 2.226 1.258c.046.163.069.332.069.502v1.532h1.8c.994 0 1.8.82 1.8 1.83V16.17c0 1.01-.806 1.83-1.8 1.83H1.8C.806 18 0 17.18 0 16.17h.024A1.86 1.86 0 0 1 0 15.872V4.967c0-.817.533-1.535 1.306-1.76l10.8-3.136Zm-4.779 16.1H16.2V5.192h-1.8v1.83h1.8v1.83h-1.8v3.883c0 .818-.533 1.536-1.306 1.76L7.327 16.17ZM1.8 4.967v10.905l10.8-3.136V1.83L1.8 4.967Zm9 2.054a.907.907 0 0 1-.9.915c-.497 0-.9-.41-.9-.915 0-.505.403-.914.9-.914s.9.41.9.914Z" clip-rule="evenodd"/>
</svg>
