<svg xmlns="http://www.w3.org/2000/svg" fill="none" viewBox="0 0 32 32">
  <path fill="currentColor" fill-rule="evenodd" d="M16 20.387a4.387 4.387 0 1 0 0-8.774 4.387 4.387 0 0 0 0 8.774Zm0 1.033a5.42 5.42 0 1 0 0-10.84 5.42 5.42 0 0 0 0 10.84ZM16.516 0v8h-1.032V0h1.032ZM16.516 24v8h-1.032v-8h1.032ZM22.925 21.935l5.657 5.657-.73.73-5.657-5.657.73-.73ZM4.085 3.355l5.657 5.657-.73.73-5.657-5.657.73-.73ZM22.065 8.882l5.656-5.657.73.73-5.656 5.657-.73-.73ZM3.484 27.72l5.656-5.656.73.73-5.656 5.657-.73-.73ZM32 16.646h-8v-1.033h8v1.033ZM8 16.646H0v-1.033h8v1.033Z" clip-rule="evenodd"/>
</svg>
