<svg xmlns="http://www.w3.org/2000/svg" fill="none" viewBox="0 0 24 24">
  <path fill="currentColor" fill-rule="evenodd" d="M3.333 2.13c-.477.152-1.048.749-1.199 1.252-.179.598-.179 16.626 0 17.224.16.531.728 1.1 1.26 1.26.597.179 16.615.179 17.213 0 .53-.16 1.1-.729 1.259-1.26.179-.599.179-16.626 0-17.224-.16-.532-.728-1.1-1.26-1.26-.56-.168-16.745-.16-17.273.008Zm14.103 3.74c.878.298 1.289.934 1.38 2.138.121 1.618-.7 3.446-2.79 6.208-2.033 2.688-3.944 4.14-5.254 3.993-.591-.067-1.02-.414-1.487-1.204-.406-.686-.444-.801-1.332-4.034-.62-2.257-1.07-3.327-1.496-3.56-.255-.14-.302-.127-.83.225l-.562.373-.31-.423c-.171-.233-.31-.45-.31-.484 0-.139 2.685-2.415 3.263-2.766 1.26-.765 2.294-.412 2.773.946.083.235.267 1.117.41 1.96.617 3.665 1.028 4.768 1.65 4.435.497-.266 1.46-1.65 1.91-2.743.338-.821.315-1.364-.073-1.752-.283-.283-.351-.305-.786-.249-.262.034-.579.091-.704.127-.225.064-.226.06-.085-.341.668-1.895 1.98-2.954 3.67-2.963.34-.002.774.05.963.114Z" clip-rule="evenodd"/>
</svg>
